PathFileType	4	(X/Y/Z)	C:/Users/opensim2020/Desktop/walking_exp_matlab/subject01_walking07_straight_04.trc																																																																																																																															
DataRate	CameraRate	NumFrames	NumMarkers	Units	OrigDataRate	OrigDataStartFrame	OrigNumFrames																																																																																																																											
100	100	8	43	mm	100	2922	176																																																																																																																											
Frame#	Time	LFHD			RFHD			LBHD			RBHD			C7			T10			CLAV			STRN			RBAK			LSHO			LUPA			LELB			LFRM			LWRA			LWRB			LFIN			RSHO			RUPA			RELB			RFRM			RWRA			RWRB			RFIN			LASI			RASI			LPSI			RPSI			LTHI			LKNE			LTIB			LANK			LHEE			LTOE			RTHI			RKNE			RTIB			RANK			RHEE			RTOE			*39			*40			*41			*42		
		X1	Y1	Z1	X2	Y2	Z2	X3	Y3	Z3	X4	Y4	Z4	X5	Y5	Z5	X6	Y6	Z6	X7	Y7	Z7	X8	Y8	Z8	X9	Y9	Z9	X10	Y10	Z10	X11	Y11	Z11	X12	Y12	Z12	X13	Y13	Z13	X14	Y14	Z14	X15	Y15	Z15	X16	Y16	Z16	X17	Y17	Z17	X18	Y18	Z18	X19	Y19	Z19	X20	Y20	Z20	X21	Y21	Z21	X22	Y22	Z22	X23	Y23	Z23	X24	Y24	Z24	X25	Y25	Z25	X26	Y26	Z26	X27	Y27	Z27	X28	Y28	Z28	X29	Y29	Z29	X30	Y30	Z30	X31	Y31	Z31	X32	Y32	Z32	X33	Y33	Z33	X34	Y34	Z34	X35	Y35	Z35	X36	Y36	Z36	X37	Y37	Z37	X38	Y38	Z38	X39	Y39	Z39	X40	Y40	Z40	X41	Y41	Z41	X42	Y42	Z42	X43	Y43	Z43
																																																																																																																																		
155	1.54	623.05872	1651.94849	1013.56934	680.53778	1653.42078	1112.78748	514.86548	1618.05676	1069.74426	573.07349	1619.8418	1175.11926	475.36392	1416.93457	1090.4707	447.06958	1121.51392	1085.98669	619.22083	1350.23706	1083.90527	666.72253	1198.09351	1073.67053	426.94193	1218.07458	1158.33704	556.32416	1387.05823	925.87427	552.65198	1204.27686	834.81537	564.45319	1050.92773	829.47241	640.42926	964.74469	799.77039	759.66229	893.50287	808.5509	710.71136	865.25708	789.75366	782.67853	825.68817	771.06256	561.1084	1374.33923	1238.69019	487.62692	1171.9502	1326.71863	477.02005	1050.12683	1320.37976	477.22568	931.4502	1349.09277	530.28015	798.22522	1332.92188	485.23541	810.12341	1369.34717	498.49014	723.04474	1362.5769	618.52008	914.88678	971.11707	635.13727	926.35876	1185.4303	436.69565	929.15863	1037.64795	449.30902	935.03607	1183.62476	553.12653	580.10834	914.82666	518.65735	449.1716	920.89874	365.7612	336.04932	917.54419	210.79201	177.40428	962.44312	169.61969	190.14633	1020.77515	267.45694	39.67562	965.78546	657.14679	601.39478	1248.75208	706.78595	452.17966	1218.27759	682.8147	276.32831	1232.78052	678.80383	71.20425	1190.04797	626.63855	32.33713	1145.50781	819.5459	33.7763	1176.40442	664.32147	1688.62305	1095.94995	-1973.07568	1024.04626	3102.25635	-2013.02588	1022.01257	3138.78564	NaN	NaN	NaN
156	1.55	632.66583	1653.03613	1015.04773	690.42816	1654.15649	1114.07239	524.61816	1618.92163	1071.65869	583.21979	1620.32922	1176.87622	484.69455	1417.7135	1091.56995	456.61557	1122.4967	1087.19177	628.87054	1351.08728	1084.85657	676.29694	1198.96423	1074.63953	436.95734	1219.09265	1159.96692	565.69409	1387.95349	927.04401	560.98755	1205.28101	835.77106	570.33911	1051.38025	831.64966	644.30341	963.51294	802.07837	761.85553	889.29846	811.44653	712.37006	862.32117	791.98389	783.08667	820.80505	774.17914	571.41016	1375.35925	1239.71936	499.66251	1172.59985	1328.27979	490.07565	1050.60535	1322.35229	491.71753	931.96472	1351.16907	546.13873	799.22656	1334.74585	501.35995	810.78613	1371.62097	515.21082	723.75671	1364.7373	628.08484	915.67822	973.00171	644.71155	927.36066	1187.30579	446.13931	929.75238	1039.31274	458.9722	935.99957	1185.19397	569.19275	579.87433	915.20862	537.11914	448.74054	920.54718	382.8288	339.6741	917.91376	224.47853	184.73679	963.01904	184.17743	199.30774	1021.34113	275.06796	44.06041	966.75433	662.35022	601.24072	1249.85046	711.90442	451.72775	1219.24512	685.47308	276.15891	1233.18152	679.09308	71.10714	1189.98547	626.62701	32.39699	1145.4917	819.64148	33.4558	1176.23425	673.94086	1689.29675	1097.48938	-1972.9502	1023.99274	3102.79248	-2013.20117	1022.05023	3138.18311	NaN	NaN	NaN
157	1.56	642.06531	1654.15808	1016.48016	700.39795	1654.94727	1115.24048	534.4425	1619.78381	1073.25769	593.50629	1620.84619	1178.07764	494.67001	1418.48132	1092.29419	466.00394	1123.56506	1088.55652	638.66565	1352.224	1085.67896	685.68842	1199.82495	1075.44641	446.82114	1220.25342	1161.59253	574.82892	1388.73584	927.94305	569.04779	1206.16223	836.72021	576.17334	1051.92554	833.50806	647.99835	962.16132	804.36096	763.72491	884.9538	814.43286	713.47308	859.4541	794.72864	783.48419	815.77509	777.54779	581.59662	1376.4519	1240.65405	511.59204	1173.33533	1329.96362	503.13019	1051.14771	1324.28601	506.48978	932.44257	1353.53857	562.27734	800.4068	1336.48596	517.4754	811.48077	1373.60925	532.42218	724.70599	1366.93604	637.18762	916.57281	974.73993	654.10498	928.22327	1189.03979	455.2428	930.28296	1041.11169	468.37527	937.14606	1186.86133	584.8559	579.91632	915.71442	555.35394	448.44931	920.50415	400.7063	342.7178	918.01202	239.72887	191.81097	964.10663	199.39738	208.07072	1021.81134	284.8891	48.94095	967.60938	667.77332	601.33807	1251.2467	716.58832	451.18173	1220.41675	687.75763	275.90637	1233.62915	679.396	71.10021	1189.88501	626.65015	32.43767	1145.42896	819.71155	33.25127	1176.18884	683.79547	1690.11548	1098.82861	-1972.90332	1023.91559	3102.47461	-2013.12646	1022.17383	3138.23145	NaN	NaN	NaN
158	1.57	651.97168	1655.30847	1017.7713	710.32355	1655.71521	1116.10657	544.16028	1620.91382	1074.94885	603.63892	1621.57153	1179.58167	503.84845	1419.91565	1094.33154	475.35986	1124.67419	1090.09277	648.20642	1353.09436	1086.36267	695.04834	1200.64648	1076.21826	456.54865	1221.54456	1163.24097	584.11511	1389.4408	928.78131	576.76819	1206.91675	837.79407	582.03131	1052.68665	835.35724	651.44556	960.84113	806.52271	765.22406	880.51263	817.48926	714.28021	856.36475	797.12683	783.6286	810.81744	780.8822	591.80737	1377.50659	1241.46484	523.49921	1174.16357	1331.66772	516.09705	1051.67163	1326.21716	521.12366	933.04254	1355.3291	578.9588	801.91833	1338.41809	534.2475	812.25153	1375.77588	550.11444	725.77936	1369.15186	646.31738	917.38159	976.1991	663.32251	928.98053	1190.60437	464.44031	930.71942	1042.94006	477.58023	938.03162	1188.41431	600.08337	580.28595	916.4173	573.61249	448.62634	920.72424	419.30609	344.892	918.03644	255.85706	199.09158	965.39288	215.17349	216.25383	1022.46259	295.92679	53.92245	967.17554	673.11768	601.30383	1251.91833	720.66034	450.70276	1221.61145	689.72284	275.60474	1234.16003	679.30853	71.00239	1189.9491	626.45599	32.4687	1145.51953	819.78882	33.06662	1176.07581	693.70477	1690.92737	1100.00122	-1972.98694	1024.69165	3102.55518	-2013.14246	1022.22797	3138.43628	NaN	NaN	NaN
159	1.58	661.13562	1656.25244	1018.70874	720.29376	1656.48694	1116.83362	553.90387	1621.81079	1076.31592	614.03937	1622.13977	1180.24536	513.87952	1420.92419	1094.77539	484.56818	1125.79346	1091.7334	657.84161	1354.09729	1086.96179	704.25397	1201.4176	1076.85437	466.13129	1222.90295	1164.87012	593.30603	1390.12805	929.54761	584.24408	1207.47095	838.93732	588.00525	1052.97241	837.13715	654.78931	959.49896	808.63812	766.35895	876.10425	820.4798	715.16553	853.28577	799.4657	782.84052	805.68127	784.34991	601.97784	1378.66211	1242.1936	535.37854	1175.11084	1333.5332	529.13098	1052.31824	1328.16138	536.00488	933.65192	1357.40149	595.54895	803.3573	1340.09644	551.00427	813.04108	1377.8844	568.2691	726.99719	1371.38342	654.96057	918.23828	977.46637	672.31073	929.59265	1192.03271	473.05994	931.2467	1044.65955	486.44156	938.86115	1190.19861	614.95734	581.07037	917.00195	591.83563	449.14136	921.22534	438.31122	346.52884	918.17487	272.4115	205.43622	966.94592	231.86345	223.13248	1024.00537	309.45917	59.69905	966.25067	679.2276	601.42657	1253.34131	724.46832	450.01971	1222.79932	691.41528	275.29492	1234.81616	679.38672	71.0566	1189.95935	626.60651	32.48974	1145.35095	819.83203	32.96337	1176.04102	703.77161	1691.87292	1100.90674	-1972.6958	1024.58423	3103.15039	-2013.16663	1022.16888	3138.44263	NaN	NaN	NaN
160	1.59	670.58215	1657.29224	1019.47894	730.23169	1657.25098	1117.31982	563.59222	1622.92651	1077.69934	624.33051	1622.74646	1181.33923	523.84735	1422.04126	1095.48926	493.61584	1126.94019	1093.51233	667.49384	1354.94482	1087.49011	713.33228	1202.07959	1077.43652	475.64951	1224.26123	1166.52356	602.40356	1390.73962	930.20673	591.49048	1207.84375	840.19739	593.20227	1053.34155	838.64893	657.97424	958.18433	810.74835	767.25195	871.68628	823.47827	715.40149	850.53467	802.00488	782.58466	800.72821	787.91412	612.07043	1379.79614	1243.0636	547.39844	1175.89746	1334.86023	542.1358	1052.99683	1330.10925	551.02338	934.52917	1359.43896	612.39172	805.01697	1341.80212	568.10303	814.22534	1380.0022	586.79816	728.41199	1373.65308	663.60205	919.10822	978.58484	681.05194	930.1792	1193.27954	481.60312	931.45972	1046.01355	495.32709	939.67828	1191.30273	629.59174	582.16553	917.6084	610.25439	450.01437	921.90955	457.53513	347.77933	918.52277	289.08096	210.9967	968.77539	249.06549	228.1131	1026.76465	324.97305	65.58197	964.71411	684.98834	601.22437	1253.94617	728.12238	449.45578	1223.83862	692.9812	275.00674	1235.40283	679.46161	70.97137	1189.97107	626.45044	32.53194	1145.42676	819.9917	32.88571	1176.02979	713.60144	1692.64917	1101.52893	-1972.91345	1023.97388	3102.63306	-2013.03882	1021.94104	3138.81934	NaN	NaN	NaN
161	1.6	680.00323	1658.17859	1020.11908	740.22656	1657.99426	1117.60449	573.31665	1623.67261	1078.70752	634.43469	1623.4939	1181.70801	533.22205	1423.07141	1096.22595	502.60648	1128.00146	1095.22314	677.43549	1355.81836	1087.89819	722.37286	1202.67151	1077.90979	485.05515	1225.6178	1168.20007	611.44153	1391.25513	930.79431	598.48267	1208.01123	841.55463	598.7757	1053.70618	840.21454	660.88525	956.9267	812.71735	767.76685	867.31079	826.38251	715.69739	847.5943	804.0285	780.92682	795.71082	791.20569	622.30841	1380.91516	1243.66821	559.36353	1176.76941	1336.37671	555.12775	1053.72595	1332.08447	566.22229	935.39795	1361.77686	629.44019	807.03522	1343.53455	585.37537	815.26385	1381.95654	605.68201	730.03131	1375.8988	671.78528	919.93506	979.56934	689.77936	930.67297	1194.48267	490.19324	931.88293	1047.40356	503.83603	940.43127	1192.51758	644.02435	583.50385	918.19141	628.5824	451.34509	922.60291	476.68909	349.05914	919.06183	306.46378	215.76941	971.00958	266.94391	231.82375	1029.83362	341.72293	70.35013	963.0553	691.18121	601.42273	1255.13269	731.7865	448.92407	1224.68896	694.5542	274.81107	1236.19287	679.59058	70.92384	1189.98157	626.44977	32.5801	1145.56519	820.08783	32.68621	1175.92249	723.53198	1693.46313	1101.93091	-1972.90503	1023.96948	3102.65283	-2013.14502	1022.21173	3138.24023	NaN	NaN	NaN
162	1.61	689.3573	1658.99683	1020.4632	750.07092	1658.6239	1117.52563	583.00275	1624.60217	1079.83545	644.7215	1624.14246	1182.31128	542.84583	1424.47803	1097.94934	511.43784	1129.13367	1096.92273	686.70984	1356.42896	1088.15784	731.28052	1203.18909	1078.35144	494.36304	1226.92114	1169.90906	620.34772	1391.68652	931.27966	605.4032	1208.07751	842.88831	604.41534	1053.93909	841.90643	663.63995	955.78198	814.71509	767.98737	863.09381	829.16211	715.43988	844.92957	806.31396	779.39191	790.59857	794.66492	632.5177	1381.9259	1244.15454	571.34375	1177.67932	1337.87024	568.07507	1054.46997	1334.03491	581.27283	936.2027	1363.58044	646.7085	809.13226	1345.19189	602.75507	816.6203	1384.01782	624.90887	731.88739	1378.18213	680.73297	920.89301	980.33893	699.01459	931.35321	1195.73108	498.68689	932.33276	1048.54016	512.33643	941.06171	1193.44385	658.2876	585.14856	918.62073	646.96783	452.78986	923.53754	495.75647	350.47403	919.78461	324.77988	219.22542	973.24884	285.51111	234.21375	1032.92542	360.21838	74.43784	961.62665	697.2619	601.44116	1256.20837	735.39276	448.45578	1225.42529	696.15869	274.74268	1236.80164	679.73187	70.98413	1190.03699	626.46759	32.7326	1145.6554	820.24097	32.54456	1175.85449	733.39404	1694.18616	1102.02075	-1973.06738	1024.0531	3102.27466	NaN	NaN	NaN	NaN	NaN	NaN
